<svg version="1.1" xmlns="http://www.w3.org/2000/svg" xmlns:xlink="http://www.w3.org/1999/xlink" viewBox="0 0 172 172"><g transform="translate(14.276,14.276) scale(0.834,0.834)"><g fill="none" fill-rule="nonzero" stroke="none" stroke-width="none" stroke-linecap="butt" stroke-linejoin="none" stroke-miterlimit="10" stroke-dasharray="" stroke-dashoffset="0" font-family="none" font-weight="none" font-size="none" text-anchor="none" style="mix-blend-mode: normal"><g fill="#1300d3" stroke="#ff5e10" stroke-width="34" stroke-linejoin="round"><path d="M165.12,86c0,43.62608 -35.49392,79.12 -79.12,79.12c-43.62608,0 -79.12,-35.49392 -79.12,-79.12c0,-43.62608 35.49392,-79.12 79.12,-79.12c43.62608,0 79.12,35.49392 79.12,79.12zM82.92953,31.11453c0.08371,0.32401 0.17047,0.64918 0.15453,1.00109l-1.41094,31.25562c-0.06192,1.41384 -0.98653,2.64654 -2.32469,3.10406c-2.55248,0.87032 -4.88039,2.21557 -6.92031,4.00437c-0.64328,0.56416 -1.44894,0.85328 -2.26422,0.85328c-0.55728,0 -1.12009,-0.13792 -1.63265,-0.41656l-26.86828,-14.49234c-0.55031,-0.29667 -0.93707,-0.74655 -1.24297,-1.24297c-1.25243,1.84679 -2.3548,3.79452 -3.37953,5.79156c0.48812,0.07188 0.97295,0.23271 1.41094,0.52406l25.80672,17.17985c1.14896,0.76712 1.72596,2.14511 1.4714,3.50047c-0.24768,1.31064 -0.36953,2.59489 -0.36953,3.82297c0,1.22808 0.12185,2.51233 0.36953,3.82297c0.25456,1.35536 -0.32589,2.73335 -1.4714,3.50047l-25.80672,17.20672c-0.43906,0.29271 -0.92331,0.43259 -1.41094,0.50391c0.97181,1.89338 2.0212,3.73721 3.19813,5.49594l28.28594,-15.45313c1.26248,-0.68456 2.81671,-0.50928 3.89687,0.43672c2.04336,1.7888 4.37455,3.13749 6.92703,4.00437c1.3416,0.45752 2.26277,1.69006 2.32469,3.11078l1.40422,31.11453c0.01818,0.4007 -0.06431,0.77871 -0.17469,1.14219c1.02958,0.05762 2.04687,0.15453 3.09063,0.15453c1.0449,0 2.06664,-0.0968 3.09735,-0.15453c-0.11234,-0.37021 -0.19543,-0.76009 -0.17469,-1.16906l1.59906,-31.18172c0.0688,-1.39664 0.98029,-2.60951 2.29781,-3.07047c2.43896,-0.85312 4.66077,-2.13769 6.61125,-3.80953c1.08704,-0.93224 2.64127,-1.098 3.89687,-0.40312l12.01985,6.61797c0.24768,0.07912 0.46499,0.23865 0.69203,0.37625l14.76109,8.12297c0.27261,0.14982 0.47141,0.37194 0.68531,0.57781c1.17322,-1.7185 2.23544,-3.51147 3.21156,-5.36156c-0.27,-0.09467 -0.53171,-0.20969 -0.77938,-0.37625l-26.22328,-17.65015c-1.14896,-0.774 -1.72301,-2.15839 -1.45125,-3.52063c0.26832,-1.33816 0.40313,-2.69981 0.40313,-4.03797c0,-1.33816 -0.13152,-2.69981 -0.3964,-4.03797c-0.26832,-1.36568 0.30213,-2.75335 1.45797,-3.52735l25.73953,-17.22015c0.43005,-0.2892 0.90376,-0.44952 1.38406,-0.52406c-0.98199,-1.88659 -2.03876,-3.72451 -3.225,-5.47578c-0.16231,0.13202 -0.2867,0.29952 -0.47703,0.40313l-27.80891,15.13734c-0.516,0.28208 -1.08193,0.42328 -1.64609,0.42328c-0.80496,0 -1.59751,-0.28616 -2.23735,-0.83312c-1.95048,-1.67184 -4.17229,-2.94969 -6.61125,-3.80281c-1.31752,-0.46096 -2.22885,-1.67711 -2.30453,-3.07719l-1.59906,-31.32953c-0.01886,-0.35845 0.06932,-0.69113 0.15453,-1.02125c-1.02411,-0.05699 -2.03907,-0.15453 -3.07719,-0.15453c-1.03471,0 -2.04297,0.0979 -3.06375,0.15453zM44.29672,50.1689c0.21394,0.06567 0.43325,0.08457 0.63828,0.19485l11.92578,6.43656c5.22536,-5.22192 11.62188,-8.89616 18.71172,-10.73656l0.63156,-14.18328c-12.67042,2.28738 -23.83538,8.90667 -31.90735,18.28844zM96.52156,46.09735c6.91096,1.82664 13.29393,5.46197 18.41609,10.49469l12.44313,-6.76578c-8.04715,-9.19262 -19.07661,-15.67833 -31.58485,-17.93906zM137.26406,66.92547l-11.58313,7.76016c1.04576,3.66704 1.59906,7.45469 1.59906,11.31437c0,3.87344 -0.56658,7.6806 -1.61922,11.3614l11.81156,7.955c2.26763,-6.02076 3.56765,-12.5121 3.56765,-19.3164c0,-6.79461 -1.29946,-13.27593 -3.56094,-19.28953c-0.08053,0.06506 -0.12728,0.15633 -0.215,0.215zM30.96,86c0,6.69357 1.26318,13.08209 3.46015,19.02078c0.08055,-0.06504 0.12728,-0.15633 0.215,-0.215l11.61672,-7.74672c-0.9976,-3.58792 -1.53187,-7.29226 -1.53187,-11.05906c0,-3.76336 0.52428,-7.46787 1.51844,-11.05235l-11.60328,-7.72656c-0.09046,-0.06031 -0.13886,-0.15461 -0.22172,-0.22172c-2.1923,5.93313 -3.45344,12.31454 -3.45344,19.00063zM99.76,86c0,7.58864 -6.17136,13.76 -13.76,13.76c-7.58864,0 -13.76,-6.17136 -13.76,-13.76c0,-7.58864 6.17136,-13.76 13.76,-13.76c7.58864,0 13.76,6.17136 13.76,13.76zM79.12,86c0,3.79432 3.08568,6.88 6.88,6.88c3.79432,0 6.88,-3.08568 6.88,-6.88c0,-3.79432 -3.08568,-6.88 -6.88,-6.88c-3.79432,0 -6.88,3.08568 -6.88,6.88zM44.48485,122.03265c8.06045,9.27472 19.15102,15.81866 31.73265,18.08688c-0.00154,-0.02363 -0.01237,-0.04343 -0.01344,-0.06719l-0.63828,-14.12953c-7.04856,-1.84384 -13.54451,-5.56641 -18.72515,-10.72985zM96.51485,125.90265l-0.72563,14.16985c-0.00089,0.01697 -0.0123,0.03013 -0.01344,0.04703c12.46466,-2.24794 23.46125,-8.69447 31.50422,-17.83156l-12.3961,-6.82625c-5.11184,5.00176 -11.48218,8.62118 -18.36906,10.44094z"></path></g><path d="M0,172v-172h172v172z" fill="none" stroke="none" stroke-width="1" stroke-linejoin="miter"></path><g fill="#1300d3" stroke="none" stroke-width="1" stroke-linejoin="miter"><path d="M86,6.88c-43.62608,0 -79.12,35.49392 -79.12,79.12c0,43.62608 35.49392,79.12 79.12,79.12c43.62608,0 79.12,-35.49392 79.12,-79.12c0,-43.62608 -35.49392,-79.12 -79.12,-79.12zM85.99328,30.96c1.03811,0 2.05308,0.09754 3.07719,0.15453c-0.08521,0.33012 -0.1734,0.6628 -0.15453,1.02125l1.59906,31.32953c0.07568,1.40008 0.98701,2.61623 2.30453,3.07719c2.43896,0.85312 4.66077,2.13097 6.61125,3.80281c0.63984,0.54696 1.43239,0.83312 2.23735,0.83312c0.56416,0 1.13009,-0.1412 1.64609,-0.42328l27.80891,-15.13734c0.19033,-0.10361 0.31472,-0.27111 0.47703,-0.40313c1.18624,1.75127 2.24301,3.5892 3.225,5.47578c-0.4803,0.07455 -0.95401,0.23486 -1.38406,0.52406l-25.73953,17.22015c-1.15584,0.774 -1.72629,2.16167 -1.45797,3.52735c0.26488,1.33816 0.3964,2.69981 0.3964,4.03797c0,1.33816 -0.1348,2.69981 -0.40313,4.03797c-0.27176,1.36224 0.30229,2.74663 1.45125,3.52063l26.22328,17.65015c0.24767,0.16656 0.50937,0.28158 0.77938,0.37625c-0.97613,1.85009 -2.03834,3.64306 -3.21156,5.36156c-0.2139,-0.20587 -0.4127,-0.42799 -0.68531,-0.57781l-14.76109,-8.12297c-0.22704,-0.1376 -0.44435,-0.29713 -0.69203,-0.37625l-12.01985,-6.61797c-1.2556,-0.69488 -2.80983,-0.52912 -3.89687,0.40312c-1.95048,1.67184 -4.17229,2.95641 -6.61125,3.80953c-1.31752,0.46096 -2.22901,1.67383 -2.29781,3.07047l-1.59906,31.18172c-0.02074,0.40897 0.06235,0.79885 0.17469,1.16906c-1.0307,0.05773 -2.05245,0.15453 -3.09735,0.15453c-1.04376,0 -2.06105,-0.09691 -3.09063,-0.15453c0.11038,-0.36348 0.19287,-0.74149 0.17469,-1.14219l-1.40422,-31.11453c-0.06192,-1.42072 -0.98309,-2.65326 -2.32469,-3.11078c-2.55248,-0.86688 -4.88367,-2.21557 -6.92703,-4.00437c-1.08016,-0.946 -2.63439,-1.12128 -3.89687,-0.43672l-28.28594,15.45313c-1.17693,-1.75873 -2.22632,-3.60255 -3.19813,-5.49594c0.48763,-0.07131 0.97187,-0.2112 1.41094,-0.50391l25.80672,-17.20672c1.14552,-0.76712 1.72596,-2.14511 1.4714,-3.50047c-0.24768,-1.31064 -0.36953,-2.59489 -0.36953,-3.82297c0,-1.22808 0.12185,-2.51233 0.36953,-3.82297c0.25456,-1.35536 -0.32245,-2.73335 -1.4714,-3.50047l-25.80672,-17.17985c-0.43798,-0.29135 -0.92281,-0.45218 -1.41094,-0.52406c1.02473,-1.99704 2.1271,-3.94477 3.37953,-5.79156c0.3059,0.49642 0.69266,0.9463 1.24297,1.24297l26.86828,14.49234c0.51256,0.27864 1.07537,0.41656 1.63265,0.41656c0.81528,0 1.62094,-0.28912 2.26422,-0.85328c2.03992,-1.7888 4.36783,-3.13405 6.92031,-4.00437c1.33816,-0.45752 2.26277,-1.69022 2.32469,-3.10406l1.41094,-31.25562c0.01594,-0.35191 -0.07082,-0.67708 -0.15453,-1.00109c1.02078,-0.05663 2.02904,-0.15453 3.06375,-0.15453zM76.20406,31.88047l-0.63156,14.18328c-7.08984,1.8404 -13.48636,5.51464 -18.71172,10.73656l-11.92578,-6.43656c-0.20503,-0.11027 -0.42434,-0.12918 -0.63828,-0.19485c8.07197,-9.38177 19.23692,-16.00105 31.90735,-18.28844zM95.79594,31.88719c12.50824,2.26073 23.53769,8.74644 31.58485,17.93906l-12.44313,6.76578c-5.12216,-5.03272 -11.50513,-8.66805 -18.41609,-10.49469zM137.47906,66.71047c2.26147,6.0136 3.56094,12.49492 3.56094,19.28953c0,6.80431 -1.30003,13.29564 -3.56765,19.3164l-11.81156,-7.955c1.05264,-3.6808 1.61922,-7.48796 1.61922,-11.3614c0,-3.85968 -0.5533,-7.64733 -1.59906,-11.31437l11.58313,-7.76016c0.08772,-0.05867 0.13447,-0.14994 0.215,-0.215zM34.41344,66.99937c0.08286,0.06711 0.13126,0.16141 0.22172,0.22172l11.60328,7.72656c-0.99416,3.58448 -1.51844,7.28899 -1.51844,11.05235c0,3.7668 0.53427,7.47114 1.53187,11.05906l-11.61672,7.74672c-0.08772,0.05867 -0.13445,0.14996 -0.215,0.215c-2.19697,-5.9387 -3.46015,-12.32722 -3.46015,-19.02078c0,-6.68609 1.26114,-13.06749 3.45344,-19.00063zM86,72.24c-7.58864,0 -13.76,6.17136 -13.76,13.76c0,7.58864 6.17136,13.76 13.76,13.76c7.58864,0 13.76,-6.17136 13.76,-13.76c0,-7.58864 -6.17136,-13.76 -13.76,-13.76zM86,79.12c3.79432,0 6.88,3.08568 6.88,6.88c0,3.79432 -3.08568,6.88 -6.88,6.88c-3.79432,0 -6.88,-3.08568 -6.88,-6.88c0,-3.79432 3.08568,-6.88 6.88,-6.88zM56.84063,115.19297c5.18064,5.16344 11.67659,8.88601 18.72515,10.72985l0.63828,14.12953c0.00106,0.02376 0.0119,0.04356 0.01344,0.06719c-12.58163,-2.26821 -23.67221,-8.81216 -31.73265,-18.08688zM114.8839,115.46172l12.3961,6.82625c-8.04296,9.13709 -19.03956,15.58362 -31.50422,17.83156c0.00113,-0.0169 0.01255,-0.03007 0.01344,-0.04703l0.72563,-14.16985c6.88688,-1.81976 13.25722,-5.43918 18.36906,-10.44094z"></path></g><path d="" fill="none" stroke="none" stroke-width="1" stroke-linejoin="miter"></path><path d="" fill="none" stroke="none" stroke-width="1" stroke-linejoin="miter"></path></g></g></svg>